# xmcd
#
# Track frame offsets: 
#        187
#        9987
#        22705
#        34650
#        46665
#        59025
#        70297
#        80180
#        93047
#        102707
#        117185
#        130167
#        142187
#        153257
#        162265
#        172185
#
# Disc length: 2430 seconds
#
# Revision: 2
# Processed by: cddbd v1.5.1PL0 Copyright (c) Steve Scherf et al.
# Submitted via: ExactAudioCopy v0.95a5
#
DISCID=d3097c10
DTITLE=Bob Wills - Country Music Hall of Fame Series
DYEAR=1992
DGENRE=Country
TTITLE0=Cornball Rag
TTITLE1=San Antonio Rose
TTITLE2=Don't Keep It A Secret
TTITLE3=Hoopaw Rag
TTITLE4=My Shoes Keep Walking Back To You
TTITLE5=So Let's Rock
TTITLE6=Little Star Of Heaven
TTITLE7=It's The Bottle Talkin'
TTITLE8=Gotta Walk Alone
TTITLE9=Lilly Dale
TTITLE10=Texas Two Step
TTITLE11=I'll Always Be In Love With You
TTITLE12=With Tears In My Eyes
TTITLE13=If No News Is Good News
TTITLE14=A Big Ball In Cow Town
TTITLE15=If You'll Come Back To Me
EXTD=
EXTT0=
EXTT1=
EXTT2=
EXTT3=
EXTT4=
EXTT5=
EXTT6=
EXTT7=
EXTT8=
EXTT9=
EXTT10=
EXTT11=
EXTT12=
EXTT13=
EXTT14=
EXTT15=
PLAYORDER=
